<mxfile host="app.diagrams.net" modified="2023-06-05T02:20:47.958Z" agent="5.0 (Windows NT 10.0; Win64; x64) AppleWebKit/537.36 (KHTML, like Gecko) Chrome/92.0.4515.131 Safari/537.36 SLBrowser/8.0.1.4031 SLBChan/25" version="20.6.2" etag="X3EaUryz_EIhHMYV4UFI" type="github">
  <diagram id="TZfmpZxh4S-H4jH0v8CI" name="第 1 页">
    <mxGraphModel dx="1038" dy="577" grid="1" gridSize="10" guides="1" tooltips="1" connect="1" arrows="1" fold="1" page="1" pageScale="1" pageWidth="827" pageHeight="1169" math="0" shadow="0">
      <root>
        <mxCell id="0" />
        <mxCell id="1" parent="0" />
        <mxCell id="r-5hcT5uWyjnR2qsI_36-1" value="&lt;font style=&quot;font-size: 23px;&quot;&gt;技术栈&lt;/font&gt;" style="ellipse;whiteSpace=wrap;html=1;fillColor=#1ba1e2;fontColor=#ffffff;strokeColor=#006EAF;" vertex="1" parent="1">
          <mxGeometry x="310" y="170" width="150" height="80" as="geometry" />
        </mxCell>
        <mxCell id="r-5hcT5uWyjnR2qsI_36-2" value="Android客户端" style="ellipse;whiteSpace=wrap;html=1;fontSize=23;fillColor=#e3c800;fontColor=#000000;strokeColor=#B09500;" vertex="1" parent="1">
          <mxGeometry x="540" y="100" width="180" height="80" as="geometry" />
        </mxCell>
        <mxCell id="r-5hcT5uWyjnR2qsI_36-3" value="Git项目管理" style="ellipse;whiteSpace=wrap;html=1;fontSize=23;fillColor=#f0a30a;fontColor=#000000;strokeColor=#BD7000;" vertex="1" parent="1">
          <mxGeometry x="540" y="270" width="160" height="80" as="geometry" />
        </mxCell>
        <mxCell id="r-5hcT5uWyjnR2qsI_36-4" value="服务端&lt;br&gt;（&lt;font style=&quot;font-size: 11px;&quot;&gt;基于网易云音乐开放接口&lt;/font&gt;）" style="ellipse;whiteSpace=wrap;html=1;fontSize=23;fillColor=#b0e3e6;strokeColor=#0e8088;" vertex="1" parent="1">
          <mxGeometry x="50" y="170" width="180" height="90" as="geometry" />
        </mxCell>
        <mxCell id="r-5hcT5uWyjnR2qsI_36-5" value="" style="curved=1;endArrow=classic;html=1;rounded=0;fontSize=11;entryX=0;entryY=0.5;entryDx=0;entryDy=0;" edge="1" parent="1" target="r-5hcT5uWyjnR2qsI_36-2">
          <mxGeometry width="50" height="50" relative="1" as="geometry">
            <mxPoint x="460" y="210" as="sourcePoint" />
            <mxPoint x="510" y="160" as="targetPoint" />
            <Array as="points">
              <mxPoint x="510" y="210" />
              <mxPoint x="460" y="160" />
            </Array>
          </mxGeometry>
        </mxCell>
        <mxCell id="r-5hcT5uWyjnR2qsI_36-6" value="" style="curved=1;endArrow=classic;html=1;rounded=0;fontSize=11;exitX=0.455;exitY=1.025;exitDx=0;exitDy=0;exitPerimeter=0;entryX=0;entryY=0.5;entryDx=0;entryDy=0;" edge="1" parent="1" source="r-5hcT5uWyjnR2qsI_36-1" target="r-5hcT5uWyjnR2qsI_36-3">
          <mxGeometry width="50" height="50" relative="1" as="geometry">
            <mxPoint x="430" y="290" as="sourcePoint" />
            <mxPoint x="480" y="240" as="targetPoint" />
            <Array as="points">
              <mxPoint x="430" y="270" />
              <mxPoint x="450" y="270" />
              <mxPoint x="460" y="270" />
            </Array>
          </mxGeometry>
        </mxCell>
        <mxCell id="r-5hcT5uWyjnR2qsI_36-7" value="" style="curved=1;endArrow=classic;html=1;rounded=0;fontSize=11;exitX=0;exitY=0.5;exitDx=0;exitDy=0;entryX=1;entryY=0.5;entryDx=0;entryDy=0;" edge="1" parent="1" source="r-5hcT5uWyjnR2qsI_36-1" target="r-5hcT5uWyjnR2qsI_36-4">
          <mxGeometry width="50" height="50" relative="1" as="geometry">
            <mxPoint x="250" y="300" as="sourcePoint" />
            <mxPoint x="260" y="230" as="targetPoint" />
            <Array as="points">
              <mxPoint x="290" y="250" />
            </Array>
          </mxGeometry>
        </mxCell>
      </root>
    </mxGraphModel>
  </diagram>
</mxfile>
